<mxfile host="app.diagrams.net" agent="Mozilla/5.0 (Windows NT 10.0; Win64; x64) AppleWebKit/537.36 (KHTML, like Gecko) Chrome/136.0.0.0 Safari/537.36" version="28.0.7">
  <diagram name="PÃ¡gina-1" id="j3VFgM8Tjb0eLV3qYP4Y">
    <mxGraphModel dx="1097" dy="1769" grid="1" gridSize="10" guides="1" tooltips="1" connect="1" arrows="1" fold="1" page="1" pageScale="1" pageWidth="827" pageHeight="1169" math="0" shadow="0">
      <root>
        <mxCell id="0" />
        <mxCell id="1" parent="0" />
        <mxCell id="EQ-YH13znKwV8Gglcgqj-14" style="edgeStyle=orthogonalEdgeStyle;rounded=0;orthogonalLoop=1;jettySize=auto;html=1;exitX=0.5;exitY=0.5;exitDx=0;exitDy=0;exitPerimeter=0;" edge="1" parent="1" source="EQ-YH13znKwV8Gglcgqj-1" target="EQ-YH13znKwV8Gglcgqj-4">
          <mxGeometry relative="1" as="geometry" />
        </mxCell>
        <mxCell id="EQ-YH13znKwV8Gglcgqj-15" style="edgeStyle=orthogonalEdgeStyle;rounded=0;orthogonalLoop=1;jettySize=auto;html=1;exitX=0.5;exitY=0.5;exitDx=0;exitDy=0;exitPerimeter=0;" edge="1" parent="1" source="EQ-YH13znKwV8Gglcgqj-1" target="EQ-YH13znKwV8Gglcgqj-5">
          <mxGeometry relative="1" as="geometry" />
        </mxCell>
        <mxCell id="EQ-YH13znKwV8Gglcgqj-18" style="edgeStyle=orthogonalEdgeStyle;rounded=0;orthogonalLoop=1;jettySize=auto;html=1;exitX=0.5;exitY=0.5;exitDx=0;exitDy=0;exitPerimeter=0;" edge="1" parent="1" source="EQ-YH13znKwV8Gglcgqj-1" target="EQ-YH13znKwV8Gglcgqj-17">
          <mxGeometry relative="1" as="geometry" />
        </mxCell>
        <mxCell id="EQ-YH13znKwV8Gglcgqj-28" value="" style="edgeStyle=orthogonalEdgeStyle;rounded=0;orthogonalLoop=1;jettySize=auto;html=1;" edge="1" parent="1" source="EQ-YH13znKwV8Gglcgqj-1" target="EQ-YH13znKwV8Gglcgqj-5">
          <mxGeometry relative="1" as="geometry" />
        </mxCell>
        <mxCell id="EQ-YH13znKwV8Gglcgqj-29" value="" style="edgeStyle=orthogonalEdgeStyle;rounded=0;orthogonalLoop=1;jettySize=auto;html=1;" edge="1" parent="1" source="EQ-YH13znKwV8Gglcgqj-1" target="EQ-YH13znKwV8Gglcgqj-5">
          <mxGeometry relative="1" as="geometry" />
        </mxCell>
        <mxCell id="EQ-YH13znKwV8Gglcgqj-1" value="Adminidstrador" style="shape=umlActor;verticalLabelPosition=bottom;verticalAlign=top;html=1;outlineConnect=0;align=left;" vertex="1" parent="1">
          <mxGeometry x="20" y="-30" width="30" height="60" as="geometry" />
        </mxCell>
        <mxCell id="EQ-YH13znKwV8Gglcgqj-23" value="" style="edgeStyle=orthogonalEdgeStyle;rounded=0;orthogonalLoop=1;jettySize=auto;html=1;" edge="1" parent="1" source="EQ-YH13znKwV8Gglcgqj-4" target="EQ-YH13znKwV8Gglcgqj-21">
          <mxGeometry relative="1" as="geometry" />
        </mxCell>
        <mxCell id="EQ-YH13znKwV8Gglcgqj-35" style="edgeStyle=orthogonalEdgeStyle;rounded=0;orthogonalLoop=1;jettySize=auto;html=1;exitX=0.5;exitY=1;exitDx=0;exitDy=0;" edge="1" parent="1" source="EQ-YH13znKwV8Gglcgqj-4" target="EQ-YH13znKwV8Gglcgqj-33">
          <mxGeometry relative="1" as="geometry" />
        </mxCell>
        <mxCell id="EQ-YH13znKwV8Gglcgqj-4" value="3: gerenciar pedido" style="ellipse;whiteSpace=wrap;html=1;" vertex="1" parent="1">
          <mxGeometry x="80" y="80" width="120" height="80" as="geometry" />
        </mxCell>
        <mxCell id="EQ-YH13znKwV8Gglcgqj-5" value="2: cadastro cliente" style="ellipse;whiteSpace=wrap;html=1;" vertex="1" parent="1">
          <mxGeometry x="210" y="-40" width="120" height="80" as="geometry" />
        </mxCell>
        <mxCell id="EQ-YH13znKwV8Gglcgqj-19" style="edgeStyle=orthogonalEdgeStyle;rounded=0;orthogonalLoop=1;jettySize=auto;html=1;exitX=0.5;exitY=0.5;exitDx=0;exitDy=0;exitPerimeter=0;" edge="1" parent="1" source="EQ-YH13znKwV8Gglcgqj-8" target="EQ-YH13znKwV8Gglcgqj-9">
          <mxGeometry relative="1" as="geometry" />
        </mxCell>
        <mxCell id="EQ-YH13znKwV8Gglcgqj-8" value="cliente" style="shape=umlActor;verticalLabelPosition=bottom;verticalAlign=top;html=1;outlineConnect=0;" vertex="1" parent="1">
          <mxGeometry x="730" y="-130" width="30" height="60" as="geometry" />
        </mxCell>
        <mxCell id="EQ-YH13znKwV8Gglcgqj-9" value="4: cadastro" style="ellipse;whiteSpace=wrap;html=1;" vertex="1" parent="1">
          <mxGeometry x="370" y="-220" width="120" height="80" as="geometry" />
        </mxCell>
        <mxCell id="EQ-YH13znKwV8Gglcgqj-22" style="edgeStyle=orthogonalEdgeStyle;rounded=0;orthogonalLoop=1;jettySize=auto;html=1;exitX=0;exitY=1;exitDx=0;exitDy=0;" edge="1" parent="1" source="EQ-YH13znKwV8Gglcgqj-10" target="EQ-YH13znKwV8Gglcgqj-21">
          <mxGeometry relative="1" as="geometry" />
        </mxCell>
        <mxCell id="EQ-YH13znKwV8Gglcgqj-10" value="5:escolher produto" style="ellipse;whiteSpace=wrap;html=1;" vertex="1" parent="1">
          <mxGeometry x="450" width="120" height="80" as="geometry" />
        </mxCell>
        <mxCell id="EQ-YH13znKwV8Gglcgqj-32" style="edgeStyle=orthogonalEdgeStyle;rounded=0;orthogonalLoop=1;jettySize=auto;html=1;exitX=1;exitY=0.5;exitDx=0;exitDy=0;" edge="1" parent="1" source="EQ-YH13znKwV8Gglcgqj-17" target="EQ-YH13znKwV8Gglcgqj-31">
          <mxGeometry relative="1" as="geometry" />
        </mxCell>
        <mxCell id="EQ-YH13znKwV8Gglcgqj-17" value="1: gerenciar produto" style="ellipse;whiteSpace=wrap;html=1;" vertex="1" parent="1">
          <mxGeometry x="80" y="-180" width="120" height="80" as="geometry" />
        </mxCell>
        <mxCell id="EQ-YH13znKwV8Gglcgqj-20" style="edgeStyle=orthogonalEdgeStyle;rounded=0;orthogonalLoop=1;jettySize=auto;html=1;exitX=0.5;exitY=0.5;exitDx=0;exitDy=0;exitPerimeter=0;" edge="1" parent="1" source="EQ-YH13znKwV8Gglcgqj-8" target="EQ-YH13znKwV8Gglcgqj-10">
          <mxGeometry relative="1" as="geometry">
            <mxPoint x="600" y="60" as="targetPoint" />
          </mxGeometry>
        </mxCell>
        <mxCell id="EQ-YH13znKwV8Gglcgqj-38" style="edgeStyle=orthogonalEdgeStyle;rounded=0;orthogonalLoop=1;jettySize=auto;html=1;exitX=1;exitY=0.5;exitDx=0;exitDy=0;" edge="1" parent="1" source="EQ-YH13znKwV8Gglcgqj-21" target="EQ-YH13znKwV8Gglcgqj-25">
          <mxGeometry relative="1" as="geometry" />
        </mxCell>
        <mxCell id="EQ-YH13znKwV8Gglcgqj-21" value="6: validar pedido" style="ellipse;whiteSpace=wrap;html=1;" vertex="1" parent="1">
          <mxGeometry x="340" y="70" width="120" height="80" as="geometry" />
        </mxCell>
        <mxCell id="EQ-YH13znKwV8Gglcgqj-26" style="edgeStyle=orthogonalEdgeStyle;rounded=0;orthogonalLoop=1;jettySize=auto;html=1;" edge="1" parent="1" source="EQ-YH13znKwV8Gglcgqj-24" target="EQ-YH13znKwV8Gglcgqj-25">
          <mxGeometry relative="1" as="geometry" />
        </mxCell>
        <mxCell id="EQ-YH13znKwV8Gglcgqj-40" style="edgeStyle=orthogonalEdgeStyle;rounded=0;orthogonalLoop=1;jettySize=auto;html=1;exitX=0.5;exitY=0.5;exitDx=0;exitDy=0;exitPerimeter=0;" edge="1" parent="1" source="EQ-YH13znKwV8Gglcgqj-24" target="EQ-YH13znKwV8Gglcgqj-39">
          <mxGeometry relative="1" as="geometry" />
        </mxCell>
        <mxCell id="EQ-YH13znKwV8Gglcgqj-24" value="vendedor" style="shape=umlActor;verticalLabelPosition=bottom;verticalAlign=top;html=1;outlineConnect=0;" vertex="1" parent="1">
          <mxGeometry x="540" y="150" width="30" height="60" as="geometry" />
        </mxCell>
        <mxCell id="EQ-YH13znKwV8Gglcgqj-25" value="7: realizar pedido" style="ellipse;whiteSpace=wrap;html=1;" vertex="1" parent="1">
          <mxGeometry x="620" y="50" width="120" height="80" as="geometry" />
        </mxCell>
        <mxCell id="EQ-YH13znKwV8Gglcgqj-31" value="gerenciar estoque" style="ellipse;whiteSpace=wrap;html=1;" vertex="1" parent="1">
          <mxGeometry x="250" y="-150" width="120" height="80" as="geometry" />
        </mxCell>
        <mxCell id="EQ-YH13znKwV8Gglcgqj-37" style="edgeStyle=orthogonalEdgeStyle;rounded=0;orthogonalLoop=1;jettySize=auto;html=1;exitX=0.5;exitY=1;exitDx=0;exitDy=0;" edge="1" parent="1" source="EQ-YH13znKwV8Gglcgqj-33" target="EQ-YH13znKwV8Gglcgqj-34">
          <mxGeometry relative="1" as="geometry" />
        </mxCell>
        <mxCell id="EQ-YH13znKwV8Gglcgqj-33" value="gerenciar relatorio" style="ellipse;whiteSpace=wrap;html=1;" vertex="1" parent="1">
          <mxGeometry x="80" y="230" width="120" height="80" as="geometry" />
        </mxCell>
        <mxCell id="EQ-YH13znKwV8Gglcgqj-34" value="fazer pedido" style="ellipse;whiteSpace=wrap;html=1;" vertex="1" parent="1">
          <mxGeometry x="270" y="200" width="120" height="80" as="geometry" />
        </mxCell>
        <mxCell id="EQ-YH13znKwV8Gglcgqj-39" value="gerenciar venda" style="ellipse;whiteSpace=wrap;html=1;" vertex="1" parent="1">
          <mxGeometry x="350" y="290" width="120" height="80" as="geometry" />
        </mxCell>
      </root>
    </mxGraphModel>
  </diagram>
</mxfile>
